# Blender v3.1.2 OBJ File: ''
# www.blender.org
mtllib sphere.mtl
o sphere
v 0.270598 -0.923880 -0.270598
v 0.000000 -0.923880 -0.382683
v 0.000000 -0.707107 -0.707107
v 0.500000 -0.707107 -0.500000
v -0.270598 -0.923880 -0.270598
v -0.500000 -0.707107 -0.500000
v -0.382683 -0.923880 -0.000000
v -0.707107 -0.707107 -0.000000
v -0.270598 -0.923880 0.270598
v -0.500000 -0.707107 0.500000
v 0.000000 -0.923880 0.382683
v 0.000000 -0.707107 0.707107
v 0.270598 -0.923880 0.270598
v 0.500000 -0.707107 0.500000
v 0.382683 -0.923880 -0.000000
v 0.707107 -0.707107 -0.000000
v 0.000000 -0.382683 -0.923879
v 0.653281 -0.382683 -0.653281
v -0.653281 -0.382683 -0.653281
v -0.923879 -0.382683 -0.000000
v -0.653281 -0.382683 0.653281
v 0.000000 -0.382683 0.923879
v 0.653281 -0.382683 0.653281
v 0.923880 -0.382683 -0.000000
v 0.000000 0.000000 -1.000000
v 0.707107 0.000000 -0.707107
v -0.707107 0.000000 -0.707107
v -1.000000 0.000000 0.000000
v -0.707107 -0.000000 0.707107
v 0.000000 -0.000000 1.000000
v 0.707107 -0.000000 0.707107
v 1.000000 0.000000 0.000000
v 0.000000 0.382683 -0.923879
v 0.653281 0.382683 -0.653281
v -0.653281 0.382683 -0.653281
v -0.923879 0.382683 0.000000
v -0.653281 0.382683 0.653281
v 0.000000 0.382683 0.923879
v 0.653281 0.382683 0.653281
v 0.923880 0.382683 0.000000
v 0.000000 0.707107 -0.707107
v 0.500000 0.707107 -0.500000
v -0.500000 0.707107 -0.500000
v -0.707107 0.707107 0.000000
v -0.500000 0.707107 0.500000
v 0.000000 0.707107 0.707107
v 0.500000 0.707107 0.500000
v 0.707107 0.707107 0.000000
v 0.000000 0.923880 -0.382683
v 0.270598 0.923880 -0.270598
v -0.270598 0.923880 -0.270598
v -0.382683 0.923880 0.000000
v -0.270598 0.923880 0.270598
v 0.000000 0.923880 0.382683
v 0.270598 0.923880 0.270598
v 0.382683 0.923880 0.000000
v 0.000000 -1.000000 -0.000000
v 0.000000 1.000000 0.000000
vt 0.125000 0.125000
vt 0.000000 0.250000
vt 0.000000 0.125000
vt 0.250000 0.125000
vt 0.125000 0.250000
vt 0.375000 0.250000
vt 0.250000 0.250000
vt 0.500000 0.125000
vt 0.375000 0.125000
vt 0.625000 0.125000
vt 0.500000 0.250000
vt 0.750000 0.125000
vt 0.625000 0.250000
vt 0.875000 0.250000
vt 0.750000 0.250000
vt 1.000000 0.125000
vt 0.875000 0.125000
vt 0.000000 0.375000
vt 0.250000 0.375000
vt 0.125000 0.375000
vt 0.375000 0.375000
vt 0.500000 0.375000
vt 0.750000 0.375000
vt 0.625000 0.375000
vt 1.000000 0.375000
vt 0.875000 0.375000
vt 0.125000 0.500000
vt 0.000000 0.500000
vt 0.375000 0.500000
vt 0.250000 0.500000
vt 0.625000 0.500000
vt 0.500000 0.500000
vt 0.875000 0.500000
vt 0.750000 0.500000
vt 0.000000 0.625000
vt 0.125000 0.625000
vt 0.250000 0.625000
vt 0.500000 0.625000
vt 0.375000 0.625000
vt 0.625000 0.625000
vt 0.750000 0.625000
vt 1.000000 0.625000
vt 0.875000 0.625000
vt 0.125000 0.750000
vt 0.000000 0.750000
vt 0.250000 0.750000
vt 0.375000 0.750000
vt 0.625000 0.750000
vt 0.500000 0.750000
vt 0.875000 0.750000
vt 0.750000 0.750000
vt 0.000000 0.875000
vt 0.250000 0.875000
vt 0.125000 0.875000
vt 0.500000 0.875000
vt 0.375000 0.875000
vt 0.750000 0.875000
vt 0.625000 0.875000
vt 1.000000 0.875000
vt 0.875000 0.875000
vt 0.062500 0.000000
vt 0.187500 0.000000
vt 0.312500 0.000000
vt 0.437500 0.000000
vt 0.562500 0.000000
vt 0.687500 0.000000
vt 0.812500 0.000000
vt 0.937500 0.000000
vt 0.062500 1.000000
vt 0.187500 1.000000
vt 0.312500 1.000000
vt 0.437500 1.000000
vt 0.562500 1.000000
vt 0.687500 1.000000
vt 0.812500 1.000000
vt 0.937500 1.000000
vt 1.000000 0.250000
vt 1.000000 0.500000
vt 1.000000 0.750000
vn 0.2243 -0.8103 -0.5414
vn -0.2243 -0.8103 -0.5414
vn -0.5414 -0.8103 -0.2243
vn -0.5414 -0.8103 0.2243
vn -0.2243 -0.8103 0.5414
vn 0.2243 -0.8103 0.5414
vn 0.5414 -0.8103 0.2243
vn 0.5414 -0.8103 -0.2243
vn 0.3256 -0.5253 -0.7862
vn -0.3256 -0.5253 -0.7862
vn -0.7862 -0.5253 -0.3256
vn -0.7862 -0.5253 0.3256
vn -0.3256 -0.5253 0.7862
vn 0.3256 -0.5253 0.7862
vn 0.7862 -0.5253 0.3256
vn 0.7862 -0.5253 -0.3256
vn 0.3764 -0.1807 -0.9087
vn -0.3764 -0.1807 -0.9087
vn -0.9087 -0.1807 -0.3764
vn -0.9087 -0.1807 0.3764
vn -0.3764 -0.1807 0.9087
vn 0.3764 -0.1807 0.9087
vn 0.9087 -0.1807 0.3764
vn 0.9087 -0.1807 -0.3764
vn 0.3764 0.1807 -0.9087
vn -0.3764 0.1807 -0.9087
vn -0.9087 0.1807 -0.3764
vn -0.9087 0.1807 0.3764
vn -0.3764 0.1807 0.9087
vn 0.3764 0.1807 0.9087
vn 0.9087 0.1807 0.3764
vn 0.9087 0.1807 -0.3764
vn 0.3256 0.5253 -0.7862
vn -0.3256 0.5253 -0.7862
vn -0.7862 0.5253 -0.3256
vn -0.7862 0.5253 0.3256
vn -0.3256 0.5253 0.7862
vn 0.3256 0.5253 0.7862
vn 0.7862 0.5253 0.3256
vn 0.7862 0.5253 -0.3256
vn 0.2243 0.8103 -0.5414
vn -0.2243 0.8103 -0.5414
vn -0.5414 0.8103 -0.2243
vn -0.5414 0.8103 0.2243
vn -0.2243 0.8103 0.5414
vn 0.2243 0.8103 0.5414
vn 0.5414 0.8103 0.2243
vn 0.5414 0.8103 -0.2243
vn 0.0805 -0.9776 -0.1945
vn -0.0805 -0.9776 -0.1945
vn -0.1945 -0.9776 -0.0805
vn -0.1945 -0.9776 0.0805
vn -0.0805 -0.9776 0.1945
vn 0.0805 -0.9776 0.1945
vn 0.1945 -0.9776 0.0805
vn 0.1945 -0.9776 -0.0805
vn 0.0805 0.9776 -0.1945
vn -0.0805 0.9776 -0.1945
vn -0.1945 0.9776 -0.0805
vn -0.1945 0.9776 0.0805
vn -0.0805 0.9776 0.1945
vn 0.0805 0.9776 0.1945
vn 0.1945 0.9776 0.0805
vn 0.1945 0.9776 -0.0805
usemtl initialShadingGroup
s 1
f 2/1/1 4/2/1 1/3/1
f 5/4/2 3/5/2 2/1/2
f 5/4/3 8/6/3 6/7/3
f 9/8/4 8/6/4 7/9/4
f 11/10/5 10/11/5 9/8/5
f 13/12/6 12/13/6 11/10/6
f 13/12/7 16/14/7 14/15/7
f 1/16/8 16/14/8 15/17/8
f 3/5/9 18/18/9 4/2/9
f 3/5/10 19/19/10 17/20/10
f 8/6/11 19/19/11 6/7/11
f 10/11/12 20/21/12 8/6/12
f 12/13/13 21/22/13 10/11/13
f 12/13/14 23/23/14 22/24/14
f 16/14/15 23/23/15 14/15/15
f 16/14/16 18/25/16 24/26/16
f 18/18/17 25/27/17 26/28/17
f 19/19/18 25/27/18 17/20/18
f 19/19/19 28/29/19 27/30/19
f 21/22/20 28/29/20 20/21/20
f 21/22/21 30/31/21 29/32/21
f 23/23/22 30/31/22 22/24/22
f 23/23/23 32/33/23 31/34/23
f 18/25/24 32/33/24 24/26/24
f 25/27/25 34/35/25 26/28/25
f 27/30/26 33/36/26 25/27/26
f 28/29/27 35/37/27 27/30/27
f 28/29/28 37/38/28 36/39/28
f 30/31/29 37/38/29 29/32/29
f 31/34/30 38/40/30 30/31/30
f 32/33/31 39/41/31 31/34/31
f 32/33/32 34/42/32 40/43/32
f 34/35/33 41/44/33 42/45/33
f 35/37/34 41/44/34 33/36/34
f 36/39/35 43/46/35 35/37/35
f 37/38/36 44/47/36 36/39/36
f 37/38/37 46/48/37 45/49/37
f 39/41/38 46/48/38 38/40/38
f 39/41/39 48/50/39 47/51/39
f 34/42/40 48/50/40 40/43/40
f 41/44/41 50/52/41 42/45/41
f 41/44/42 51/53/42 49/54/42
f 44/47/43 51/53/43 43/46/43
f 44/47/44 53/55/44 52/56/44
f 46/48/45 53/55/45 45/49/45
f 46/48/46 55/57/46 54/58/46
f 48/50/47 55/57/47 47/51/47
f 48/50/48 50/59/48 56/60/48
f 2/1/49 1/3/49 57/61/49
f 5/4/50 2/1/50 57/62/50
f 7/9/51 5/4/51 57/63/51
f 9/8/52 7/9/52 57/64/52
f 11/10/53 9/8/53 57/65/53
f 13/12/54 11/10/54 57/66/54
f 15/17/55 13/12/55 57/67/55
f 1/16/56 15/17/56 57/68/56
f 50/52/57 49/54/57 58/69/57
f 49/54/58 51/53/58 58/70/58
f 51/53/59 52/56/59 58/71/59
f 52/56/60 53/55/60 58/72/60
f 53/55/61 54/58/61 58/73/61
f 54/58/62 55/57/62 58/74/62
f 55/57/63 56/60/63 58/75/63
f 56/60/64 50/59/64 58/76/64
f 2/1/1 3/5/1 4/2/1
f 5/4/2 6/7/2 3/5/2
f 5/4/3 7/9/3 8/6/3
f 9/8/4 10/11/4 8/6/4
f 11/10/5 12/13/5 10/11/5
f 13/12/6 14/15/6 12/13/6
f 13/12/7 15/17/7 16/14/7
f 1/16/8 4/77/8 16/14/8
f 3/5/9 17/20/9 18/18/9
f 3/5/10 6/7/10 19/19/10
f 8/6/11 20/21/11 19/19/11
f 10/11/12 21/22/12 20/21/12
f 12/13/13 22/24/13 21/22/13
f 12/13/14 14/15/14 23/23/14
f 16/14/15 24/26/15 23/23/15
f 16/14/16 4/77/16 18/25/16
f 18/18/17 17/20/17 25/27/17
f 19/19/18 27/30/18 25/27/18
f 19/19/19 20/21/19 28/29/19
f 21/22/20 29/32/20 28/29/20
f 21/22/21 22/24/21 30/31/21
f 23/23/22 31/34/22 30/31/22
f 23/23/23 24/26/23 32/33/23
f 18/25/24 26/78/24 32/33/24
f 25/27/25 33/36/25 34/35/25
f 27/30/26 35/37/26 33/36/26
f 28/29/27 36/39/27 35/37/27
f 28/29/28 29/32/28 37/38/28
f 30/31/29 38/40/29 37/38/29
f 31/34/30 39/41/30 38/40/30
f 32/33/31 40/43/31 39/41/31
f 32/33/32 26/78/32 34/42/32
f 34/35/33 33/36/33 41/44/33
f 35/37/34 43/46/34 41/44/34
f 36/39/35 44/47/35 43/46/35
f 37/38/36 45/49/36 44/47/36
f 37/38/37 38/40/37 46/48/37
f 39/41/38 47/51/38 46/48/38
f 39/41/39 40/43/39 48/50/39
f 34/42/40 42/79/40 48/50/40
f 41/44/41 49/54/41 50/52/41
f 41/44/42 43/46/42 51/53/42
f 44/47/43 52/56/43 51/53/43
f 44/47/44 45/49/44 53/55/44
f 46/48/45 54/58/45 53/55/45
f 46/48/46 47/51/46 55/57/46
f 48/50/47 56/60/47 55/57/47
f 48/50/48 42/79/48 50/59/48
